<?xml version="1.0" standalone="no"?><!DOCTYPE svg PUBLIC "-//W3C//DTD SVG 1.1//EN" "http://www.w3.org/Graphics/SVG/1.1/DTD/svg11.dtd"><svg t="1587956377279" class="icon" viewBox="0 0 1024 1024" version="1.1" xmlns="http://www.w3.org/2000/svg" p-id="1152" xmlns:xlink="http://www.w3.org/1999/xlink" width="128" height="128"><defs><style type="text/css"></style></defs><path d="M540.8 558.8H130.7c-18.5 0-33.7-15.2-33.7-33.7 0-18.5 15.2-33.7 33.7-33.7h410.1c18.5 0 33.7 15.2 33.7 33.7-0.1 18.5-15.2 33.7-33.7 33.7z" fill="#FBA91C" p-id="1153"></path><path d="M540.8 626.1H130.7c-18.5 0-33.7-15.2-33.7-33.7 0-18.5 15.2-33.7 33.7-33.7h410.1c18.5 0 33.7 15.2 33.7 33.7-0.1 18.6-15.2 33.7-33.7 33.7z" fill="#FEBF55" p-id="1154"></path><path d="M540.8 693.4H130.7c-18.5 0-33.7-15.2-33.7-33.7 0-18.5 15.2-33.7 33.7-33.7h410.1c18.5 0 33.7 15.2 33.7 33.7-0.1 18.6-15.2 33.7-33.7 33.7z" fill="#FBA91C" p-id="1155"></path><path d="M540.8 760.8H130.7c-18.5 0-33.7-15.2-33.7-33.7 0-18.5 15.2-33.7 33.7-33.7h410.1c18.5 0 33.7 15.2 33.7 33.7-0.1 18.5-15.2 33.7-33.7 33.7z" fill="#FEBF55" p-id="1156"></path><path d="M540.8 828.1H130.7c-18.5 0-33.7-15.2-33.7-33.7 0-18.5 15.2-33.7 33.7-33.7h410.1c18.5 0 33.7 15.2 33.7 33.7-0.1 18.6-15.2 33.7-33.7 33.7z" fill="#FBA91C" p-id="1157"></path><path d="M540.8 895.5H130.7c-18.5 0-33.7-15.2-33.7-33.7 0-18.5 15.2-33.7 33.7-33.7h410.1c18.5 0 33.7 15.2 33.7 33.7-0.1 18.5-15.2 33.7-33.7 33.7z" fill="#FEBF55" p-id="1158"></path><path d="M883.3 895.5H378.1c-23.3 0-42.3-19.1-42.3-42.3V171.5c0-23.3 19.1-42.3 42.3-42.3h505.3c23.3 0 42.3 19.1 42.3 42.3v681.7c0 23.2-19.1 42.3-42.4 42.3z" fill="#1386FA" p-id="1159"></path><path d="M855.6 231.8H424.5c-9.2 0-16.8-7.6-16.8-16.8 0-9.2 7.6-16.8 16.8-16.8h431.1c9.2 0 16.8 7.6 16.8 16.8 0 9.3-7.5 16.8-16.8 16.8zM855.6 293.4H632.9c-9.2 0-16.8-7.6-16.8-16.8 0-9.2 7.6-16.8 16.8-16.8h222.8c9.2 0 16.8 7.6 16.8 16.8-0.1 9.3-7.6 16.8-16.9 16.8z" fill="#5BC1FB" p-id="1160"></path><path d="M630.7 602.4m-241.8 0a241.8 241.8 0 1 0 483.6 0 241.8 241.8 0 1 0-483.6 0Z" fill="#FFFFFF" p-id="1161"></path><path d="M624.2 498c0.1 0.1 0.2 0.1 0.3 0.1 0.2 0.1 0.3 0.2 0.4 0.2 1 0.5 2.9 1.2 5.7 1.1 2.7 0.1 4.7-0.6 5.7-1.1 0.2-0.1 0.3-0.2 0.4-0.2 0.1 0 0.2-0.1 0.3-0.1 25.6-14 34.5-47.2 34.6-47.7h-82.1s0.1 0.4 0.3 1.1c1.9 5.9 11.4 34 34.4 46.6z m0 0" fill="#FBA91C" p-id="1162"></path><path d="M718.3 743.6V570.3h0.1l30.6 16.6c8.4 4.6 12.7-0.3 14.3-2.8l25.7-55.9c3-8.2-1.5-13.5-3.8-15.6l-55-41.1-58.4-21.3c-0.2 0.6-9 33.7-34.6 47.7-0.1 0-0.2 0.1-0.3 0.1-0.2 0.1-0.3 0.2-0.4 0.3-1 0.5-2.9 1.2-5.7 1.1-2.7 0.1-4.7-0.6-5.7-1.1-0.2-0.1-0.3-0.2-0.4-0.3-0.1 0-0.2-0.1-0.3-0.1-25.6-14-34.5-47.2-34.6-47.7l-58.4 21.3-55 41.1c-2.3 2.1-6.8 7.4-3.8 15.6l25.7 55.9c1.6 2.6 5.9 7.4 14.3 2.8l30.6-16.6h0.1v173.3c0 6 4.3 10.9 9.7 10.9h155.9c5.1 0.1 9.4-4.8 9.4-10.9z m0 0" fill="#FEBF55" p-id="1163"></path><path d="M546.4 570.4h-3.6v173.2c0 6 4.3 10.9 9.7 10.9h6.5V585.1c0-11.7-7.8-14.3-12.6-14.7z m0 0M626.2 480.5h-3.6v257.8c0 9 4.3 16.3 9.7 16.3h6.5V502.4c0-17.5-7.9-21.2-12.6-21.9z m0 0M715 570.4c-4.8 0.4-12.6 3-12.6 14.7v169.5h6.5c5.4 0 9.7-4.9 9.7-10.9V570.4H715z m0 0" fill="#FBA91C" p-id="1164"></path></svg>